<svg xmlns="http://www.w3.org/2000/svg" viewBox="0 0 680 240" role="img" aria-labelledby="title desc">
<title id="title">MADE</title>
<desc id="desc">MADE in white pixel letters on dark ink, with red, yellow, green and cyan Spectrum-inspired stripes.</desc>
<rect width="680" height="240" rx="12" fill="#101319"/>
<g fill="#f7f8fa" shape-rendering="crispEdges">
<rect x="54" y="35" width="22" height="22"/>
<rect x="142" y="35" width="22" height="22"/>
<rect x="230" y="35" width="22" height="22"/>
<rect x="252" y="35" width="22" height="22"/>
<rect x="274" y="35" width="22" height="22"/>
<rect x="362" y="35" width="22" height="22"/>
<rect x="384" y="35" width="22" height="22"/>
<rect x="406" y="35" width="22" height="22"/>
<rect x="428" y="35" width="22" height="22"/>
<rect x="516" y="35" width="22" height="22"/>
<rect x="538" y="35" width="22" height="22"/>
<rect x="560" y="35" width="22" height="22"/>
<rect x="582" y="35" width="22" height="22"/>
<rect x="604" y="35" width="22" height="22"/>
<rect x="54" y="57" width="22" height="22"/>
<rect x="76" y="57" width="22" height="22"/>
<rect x="120" y="57" width="22" height="22"/>
<rect x="142" y="57" width="22" height="22"/>
<rect x="208" y="57" width="22" height="22"/>
<rect x="296" y="57" width="22" height="22"/>
<rect x="362" y="57" width="22" height="22"/>
<rect x="450" y="57" width="22" height="22"/>
<rect x="516" y="57" width="22" height="22"/>
<rect x="54" y="79" width="22" height="22"/>
<rect x="98" y="79" width="22" height="22"/>
<rect x="142" y="79" width="22" height="22"/>
<rect x="208" y="79" width="22" height="22"/>
<rect x="296" y="79" width="22" height="22"/>
<rect x="362" y="79" width="22" height="22"/>
<rect x="450" y="79" width="22" height="22"/>
<rect x="516" y="79" width="22" height="22"/>
<rect x="54" y="101" width="22" height="22"/>
<rect x="98" y="101" width="22" height="22"/>
<rect x="142" y="101" width="22" height="22"/>
<rect x="208" y="101" width="22" height="22"/>
<rect x="230" y="101" width="22" height="22"/>
<rect x="252" y="101" width="22" height="22"/>
<rect x="274" y="101" width="22" height="22"/>
<rect x="296" y="101" width="22" height="22"/>
<rect x="362" y="101" width="22" height="22"/>
<rect x="450" y="101" width="22" height="22"/>
<rect x="516" y="101" width="22" height="22"/>
<rect x="538" y="101" width="22" height="22"/>
<rect x="560" y="101" width="22" height="22"/>
<rect x="582" y="101" width="22" height="22"/>
<rect x="54" y="123" width="22" height="22"/>
<rect x="142" y="123" width="22" height="22"/>
<rect x="208" y="123" width="22" height="22"/>
<rect x="296" y="123" width="22" height="22"/>
<rect x="362" y="123" width="22" height="22"/>
<rect x="450" y="123" width="22" height="22"/>
<rect x="516" y="123" width="22" height="22"/>
<rect x="54" y="145" width="22" height="22"/>
<rect x="142" y="145" width="22" height="22"/>
<rect x="208" y="145" width="22" height="22"/>
<rect x="296" y="145" width="22" height="22"/>
<rect x="362" y="145" width="22" height="22"/>
<rect x="450" y="145" width="22" height="22"/>
<rect x="516" y="145" width="22" height="22"/>
<rect x="54" y="167" width="22" height="22"/>
<rect x="142" y="167" width="22" height="22"/>
<rect x="208" y="167" width="22" height="22"/>
<rect x="296" y="167" width="22" height="22"/>
<rect x="362" y="167" width="22" height="22"/>
<rect x="384" y="167" width="22" height="22"/>
<rect x="406" y="167" width="22" height="22"/>
<rect x="428" y="167" width="22" height="22"/>
<rect x="516" y="167" width="22" height="22"/>
<rect x="538" y="167" width="22" height="22"/>
<rect x="560" y="167" width="22" height="22"/>
<rect x="582" y="167" width="22" height="22"/>
<rect x="604" y="167" width="22" height="22"/>
</g>
<path d="M492 219 l25 -25 h27 l-25 25z" fill="#f04445"/>
<path d="M519 219 l25 -25 h27 l-25 25z" fill="#ffd43b"/>
<path d="M546 219 l25 -25 h27 l-25 25z" fill="#37c978"/>
<path d="M573 219 l25 -25 h27 l-25 25z" fill="#42cfee"/>
</svg>
